<!-- Created with Inkscape (http://www.inkscape.org/) -->
<svg width="79.375mm" height="48.511mm" version="1.1" viewBox="0 0 79.375 48.511" xmlns="http://www.w3.org/2000/svg">
 <defs>
  <linearGradient id="linearGradient311" x2="1" gradientTransform="matrix(18.24 -18.24 18.24 18.24 569.67 828.6)" gradientUnits="userSpaceOnUse">
   <stop stop-color="#f9d208" offset="0"/>
   <stop stop-color="#f1471f" offset=".82199"/>
   <stop stop-color="#f1471f" offset=".88"/>
   <stop stop-color="#f1471f" offset="1"/>
  </linearGradient>
  <clipPath id="clipPath705">
   <path d="m0.32 0.64v1121.9h793.44v-1121.9z" clip-rule="evenodd"/>
  </clipPath>
 </defs>
 <g transform="translate(-70.434 -100.96)">
  <g transform="matrix(2.2432 0 0 2.2432 -318.2 82.868)">
   <g transform="matrix(.35278 0 0 -.35278 176.84 21.918)">
    <path d="m0 0h5.2c0.768 0 1.361 0.192 1.779 0.576s0.629 0.861 0.631 1.432c2e-3 0.439-0.139 0.801-0.423 1.086-0.285 0.285-0.711 0.428-1.283 0.428h-5.265zm-1.648-9.183h5.496c0.965 0 1.685 0.246 2.159 0.741 0.473 0.494 0.712 1.091 0.715 1.794 2e-3 0.526-0.167 0.965-0.506 1.316-0.339 0.352-0.86 0.527-1.562 0.527h-5.496zm8.461 17.972c1.054 0 2.03-0.11 2.928-0.33 0.9-0.219 1.689-0.555 2.366-1.003 0.679-0.451 1.209-1.021 1.59-1.712 0.381-0.692 0.571-1.497 0.567-2.419-1e-3 -0.352-0.041-0.763-0.119-1.235-0.08-0.471-0.241-0.96-0.484-1.464-0.244-0.505-0.591-1.004-1.043-1.498-0.451-0.494-1.051-0.927-1.798-1.299 0.81-0.484 1.4-1.131 1.77-1.943 0.369-0.812 0.553-1.645 0.55-2.501-6e-3 -1.448-0.323-2.661-0.952-3.637-0.629-0.977-1.439-1.761-2.429-2.354-0.989-0.592-2.089-1.015-3.296-1.267-1.208-0.253-2.394-0.378-3.556-0.378h-11.882l4.137 23.04z" fill="#26366d"/>
   </g>
   <g transform="matrix(.35278 0 0 -.35278 189.47 21.047)">
    <path d="m0 0c-0.7 0.592-1.473 0.987-2.316 1.185-0.844 0.197-1.771 0.295-2.78 0.295-0.418 0-0.835-0.038-1.251-0.115-0.418-0.076-0.791-0.192-1.121-0.345-0.33-0.154-0.599-0.362-0.808-0.625-0.21-0.264-0.316-0.571-0.317-0.922-1e-3 -0.329 0.085-0.593 0.261-0.79 0.174-0.197 0.414-0.357 0.722-0.477 0.306-0.121 0.674-0.214 1.101-0.28 0.428-0.066 0.894-0.121 1.399-0.165 1.007-0.109 2-0.312 2.976-0.609 0.975-0.296 1.845-0.713 2.612-1.25 0.765-0.538 1.376-1.201 1.835-1.991 0.458-0.79 0.685-1.734 0.68-2.831-6e-3 -1.493-0.329-2.776-0.969-3.851-0.641-1.075-1.501-1.953-2.578-2.633-1.078-0.68-2.308-1.18-3.692-1.497-1.383-0.319-2.832-0.478-4.346-0.478-1.01 0-1.959 0.061-2.846 0.181-0.888 0.121-1.727 0.341-2.516 0.658s-1.533 0.735-2.233 1.251c-0.701 0.516-1.356 1.169-1.967 1.959l4.327 4.114c0.459-0.549 0.956-0.993 1.492-1.333 0.537-0.34 1.079-0.604 1.627-0.79 0.547-0.186 1.09-0.313 1.627-0.379 0.538-0.065 1.048-0.099 1.531-0.099 1.163 0 2.123 0.198 2.882 0.592 0.759 0.396 1.139 0.944 1.142 1.647 4e-3 1.031-1.167 1.667-3.515 1.909-1.118 0.108-2.171 0.28-3.157 0.51-0.987 0.23-1.847 0.576-2.58 1.036-0.734 0.461-1.318 1.064-1.754 1.811-0.436 0.746-0.652 1.689-0.647 2.831 6e-3 1.469 0.333 2.726 0.985 3.768 0.651 1.043 1.499 1.898 2.545 2.567 1.045 0.669 2.22 1.158 3.527 1.465s2.63 0.461 3.968 0.461c1.733 0 3.258-0.209 4.573-0.625 1.314-0.418 2.496-1.12 3.547-2.107z" fill="#26366d"/>
   </g>
   <g transform="matrix(.35278 0 0 -.35278 198.35 26.946)">
    <path d="m0 0h-17.688l4.137 23.04h17.701l-0.975-5.464h-11.283l-0.573-3.291h11.271l-0.976-5.299h-11.269l-0.64-3.49h11.271z" fill="#26366d"/>
   </g>
   <g transform="matrix(.35278 0 0 -.35278 206.66 18.789)">
    <path d="m0 0c-4.07-2.464-9.463-2.291-13.629 8e-3 -0.669-3.741-1.337-7.482-2.007-11.224 2.96-1.723 6.51-2.522 9.879-1.908 3.369 0.615 6.503 2.722 8.074 5.764 1.449 2.803 1.429 6.366-0.185 9.054-0.647-0.655-1.363-1.228-2.132-1.694" fill="#d3202a"/>
   </g>
   <g transform="matrix(.35278 0 0 -.35278 1.4392 302.44)">
    <path d="m573.58 834.42c-2.053-1.828-3.676-4.166-4.511-6.784-1.117-3.486-0.723-7.466 1.108-10.643 2.161-3.743 6.174-5.326 9.669-7.528 0.076-0.047 0.153-0.096 0.229-0.144 0.334-0.215 0.661-0.437 0.983-0.67 0.877-0.638 1.687-1.373 2.339-2.244 0.162-0.217 0.31-0.441 0.45-0.671 2.928 2.967 4.563 7.365 2.676 11.508-0.78 1.714-2.193 3.06-3.689 4.153-1.794 1.309-3.775 2.377-5.383 3.907-2.462 2.342-3.893 5.734-3.853 9.132z" fill="url(#linearGradient311)"/>
   </g>
   <text transform="scale(1)" x="177.01804" y="34.862324" fill="#ff5555" font-family="Helvetica" font-size="5.3927px" stroke-width=".037449" text-align="center" text-anchor="middle" xml:space="preserve"><tspan x="177.01804" y="34.862324" font-family="Helvetica" stroke-width=".037449"/></text>
   <g transform="translate(.11052 -4.096)">
    <g transform="matrix(.27021 0 0 .2702 161.02 -5.9072)">
     <g clip-path="url(#clipPath705)">
      <g transform="translate(46.81 141.79)">
       <path d="m0 0h-1.93l0.16-0.48h4.33l-0.16 0.48h-1.76l-0.96 4.8h-0.64z" fill="#57585a"/>
      </g>
      <g transform="translate(50.49 141.15)">
       <path d="m0 0h0.65l-0.48 2.24c0.48-0.48 0.96-0.8 1.6-0.8 0.96 0 1.44 0.64 1.28 1.6l-0.48 2.4h-0.64l0.48-2.24c0.16-0.8-0.16-1.12-0.96-1.12-0.64 0-1.28 0.48-1.45 1.12l-0.32 2.24h-0.64z" fill="#57585a"/>
      </g>
      <g transform="translate(57.87 144.51)">
       <path d="m0 0c0.16-0.8-0.16-1.44-0.96-1.44-0.64 0-1.29 0.64-1.61 1.44zm-3.21 0.16c0.32-1.12 1.29-2.08 2.41-2.08s1.6 0.96 1.44 2.08v0.32l-3.21-0.16c-0.16 0.96 0.48 1.44 1.13 1.44 0.64 0 0.96-0.32 1.44-0.64l0.32 0.32c-0.48 0.48-1.12 0.8-1.92 0.8-0.97 0-1.77-0.8-1.61-2.08z" fill="#57585a"/>
      </g>
      <g transform="translate(64.6 144.19)">
       <path d="m0 0c0.8 0 1.6-0.48 1.6-1.12 0.16-0.8-0.32-1.12-1.12-1.12h-1.44l-0.48 2.24zm-1.44-2.88h2.08c1.12 0 1.93 0.64 1.61 1.76-0.16 1.12-1.29 1.76-2.41 1.76h-1.28l-0.32 1.92h-0.64z" fill="#57585a"/>
      </g>
      <g transform="translate(71.17 144.67)">
       <path d="m0 0c0.16-0.8-0.32-1.44-1.28-1.44-0.8 0-1.44 0.64-1.6 1.44-0.16 0.96 0.32 1.6 1.12 1.6 0.96 0 1.6-0.64 1.76-1.6zm-3.52 0c0.16-1.12 1.28-2.08 2.4-2.08 1.28 0 1.93 0.96 1.76 2.08-0.16 1.12-1.28 2.08-2.56 2.08-1.12 0-1.92-0.96-1.6-2.08z" fill="#57585a"/>
      </g>
      <g transform="translate(72.94 142.75)">
       <path d="m0 0h0.64l0.48 3.2 1.76-3.2h0.48l0.48 3.2 1.61-3.2h0.64l-2.09 4h-0.64l-0.48-3.2-1.6 3.2h-0.64z" fill="#57585a"/>
      </g>
      <g transform="translate(82.72 144.51)">
       <path d="m0 0c0-0.64-0.33-1.28-1.13-1.28-0.64 0-1.28 0.48-1.44 1.28zm-3.21 0.32v-0.16c0.16-1.12 1.12-1.92 2.24-1.92 1.29 0 1.77 0.8 1.45 2.08v0.16h-3.21c0 0.8 0.48 1.28 1.28 1.28 0.48 0 0.96-0.16 1.29-0.48l0.32 0.32c-0.49 0.48-0.97 0.64-1.77 0.64-1.12 0-1.92-0.8-1.6-1.92z" fill="#57585a"/>
      </g>
      <g transform="translate(84.96 142.75)">
       <path d="m0 0h0.64l-0.16 1.12c0.32-0.64 0.96-1.12 1.76-1.12l-0.16 0.64c-0.8 0-1.76 0.64-1.92 1.76l-0.32 1.6h-0.48z" fill="#57585a"/>
      </g>
      <g transform="translate(93.94 144.83)">
       <path d="m0 0c0.16-0.96-0.32-1.6-1.13-1.6-0.96 0-1.6 0.64-1.76 1.6-0.16 0.8 0.32 1.44 1.12 1.44 0.97 0 1.61-0.64 1.77-1.44zm-3.53 0c0.16-1.12 1.28-2.08 2.4-2.08 1.29 0 1.93 0.96 1.77 2.08s-1.28 2.08-2.57 2.08c-1.12 0-1.76-0.96-1.6-2.08z" fill="#57585a"/>
      </g>
      <g transform="translate(96.34 143.39)">
       <path d="m0 0h-0.48l0.16-0.64h0.48v-0.32c0.16-0.48 0.32-0.8 0.64-0.96 0.16-0.16 0.48-0.32 0.8-0.32s0.49 0 0.65 0.16v0.48c-0.16-0.16-0.33-0.16-0.65-0.16-0.48 0-0.64 0.32-0.8 0.8v0.32h1.29l-0.17 0.64h-1.28l-0.64 3.36h-0.48z" fill="#57585a"/>
      </g>
      <g transform="translate(101.95,141.47)">
       <path d="m0 0h0.64l1.12 4.48 2.73-4.48h0.64l-3.2 5.28h-0.65z" fill="#57585a"/>
      </g>
      <g transform="translate(108.2,141.31)">
       <path d="m0 0h0.64v0.64h-0.8zm-0.16 1.6h0.48l-0.64 3.84h-0.64z" fill="#57585a"/>
      </g>
      <g transform="translate(113.33,144.83)">
       <path d="m0 0c0.16-0.96-0.32-1.6-1.12-1.6s-1.6 0.64-1.76 1.6 0.48 1.44 1.28 1.44c0.64 0 1.44-0.48 1.6-1.44zm-3.04 1.12-0.16 0.8h-0.64l1.12-5.6h0.48l-0.32 2.56c0.32-0.48 0.96-0.96 1.6-0.96 0.96 0 1.76 0.8 1.6 2.08-0.32 1.28-1.28 2.08-2.24 2.08-0.8 0-1.28-0.48-1.44-0.96z" fill="#57585a"/>
      </g>
      <g transform="translate(115.74,142.91)">
       <path d="m0 0h0.48l-0.16 0.96c0.48-0.64 1.12-1.12 1.92-1.12l-0.16 0.64c-0.96 0-1.76 0.64-1.92 1.76l-0.32 1.6h-0.64z" fill="#57585a"/>
      </g>
      <g transform="translate(121.19,145.31)">
       <path d="m0 0v-0.32c-0.32-0.16-0.64-0.16-1.12-0.16-0.81 0-1.29 0.32-1.29 0.8-0.16 0.48 0.32 0.8 0.8 0.8 0.81 0 1.45-0.48 1.61-1.12zm-3.05 0.32c0.16-0.8 0.96-1.28 1.93-1.28 0.48 0 0.8 0.16 1.28 0.16v-0.16c0-0.64-0.32-0.96-1.12-0.96-0.48 0-0.81 0-1.29 0.16v-0.48c0.48-0.16 0.97-0.32 1.45-0.32 0.64 0 0.96 0.16 1.28 0.48 0.16 0.32 0.32 0.64 0.16 1.12l-0.32 2.4h-0.64l0.16-0.48c-0.48 0.32-0.96 0.64-1.61 0.64-0.8 0-1.44-0.48-1.28-1.28z" fill="#57585a"/>
      </g>
      <g transform="translate(123.75,142.91)">
       <path d="m0 0h0.48v0.64c0.32-0.48 0.81-0.8 1.45-0.8 0.96 0 1.44 0.64 1.28 1.6l-0.48 2.4h-0.64l0.48-2.24c0.16-0.8-0.16-1.12-0.96-1.12-0.65 0-1.29 0.48-1.45 1.12l-0.32 2.24h-0.64z" fill="#57585a"/>
      </g>
      <g transform="translate(128.08,144.83)">
       <path d="m0 0c0.32-1.12 1.28-2.08 2.57-2.08 0.64 0 1.12 0.32 1.44 0.8l-0.48 0.32c-0.32-0.32-0.64-0.48-1.12-0.48-0.81 0-1.61 0.64-1.77 1.44s0.32 1.6 1.28 1.6c0.49 0 0.97-0.32 1.29-0.64l0.32 0.32c-0.48 0.48-0.96 0.8-1.77 0.8-1.12 0-1.92-0.96-1.76-2.08z" fill="#57585a"/>
      </g>
      <g transform="translate(135.94,144.67)">
       <path d="m0 0c0.16-0.8-0.16-1.44-0.97-1.44-0.8 0-1.44 0.64-1.6 1.44zm-3.21 0.16c0.16-1.12 1.12-2.08 2.24-2.08 1.29 0 1.77 0.96 1.61 2.08 0 0.16 0 0.16-0.16 0.32h-3.05c-0.16 0.8 0.32 1.28 1.12 1.28 0.48 0 0.96-0.16 1.29-0.64l0.32 0.32c-0.49 0.48-0.97 0.8-1.77 0.8-1.12 0-1.76-0.8-1.6-2.08z" fill="#57585a"/>
      </g>
     </g>
    </g>
   </g>
  </g>
 </g>
</svg>
